<?xml version="1.0" encoding="utf-8"?>
<!-- Generator: Adobe Illustrator 16.0.0, SVG Export Plug-In . SVG Version: 6.00 Build 0)  -->
<!DOCTYPE svg PUBLIC "-//W3C//DTD SVG 1.1//EN" "http://www.w3.org/Graphics/SVG/1.1/DTD/svg11.dtd">
<svg version="1.1" id="Layer_1" xmlns="http://www.w3.org/2000/svg" xmlns:xlink="http://www.w3.org/1999/xlink" x="0px" y="0px"
	 width="281.904px" height="93.535px" viewBox="0 0 281.904 93.535" enable-background="new 0 0 281.904 93.535"
	 xml:space="preserve">
<g>
	<path fill-rule="evenodd" clip-rule="evenodd" fill="#FFFFFF" d="M47.432,53.273C33.36,64.009,20.395,76.219,8.676,89.475
		l-1.083,1.226l-7.324-6.469l1.084-1.228C12.868,69.978,25.546,57.935,39.261,47.24C25.468,36.647,12.703,24.698,1.092,11.754
		L0,10.536l7.276-6.523l1.092,1.216c11.815,13.172,24.869,25.288,39.019,35.92c27.491-19.771,59.111-34.27,92.762-39.263
		c5.152-0.764,10.335-1.303,15.534-1.605c20.967-1.217,41.947,1.515,61.873,8.175c22.049,7.372,42.068,19.218,59.886,34.08
		l4.462,3.818l-4.434,3.851c-17.709,14.991-37.642,26.983-59.638,34.516c-19.891,6.812-40.817,9.691-61.812,8.627
		c-5.198-0.263-10.387-0.765-15.543-1.49C106.792,87.111,75.065,72.842,47.432,53.273L47.432,53.273z M123.521,68.536V36.397h8.484
		v32.138H123.521L123.521,68.536z M123.521,32.062v-7.865h8.484v7.865H123.521L123.521,32.062z M99.493,36.397h4.706V33.97
		c0-2.703,0.289-4.726,0.868-6.058c0.578-1.341,1.641-2.425,3.188-3.261c1.559-0.836,3.52-1.259,5.894-1.259
		c2.425,0,4.81,0.373,7.143,1.115l-1.084,5.945c-1.382-0.373-2.714-0.558-3.994-0.558c-1.259,0-2.157,0.289-2.705,0.867
		c-0.546,0.579-0.825,1.693-0.825,3.345v2.292h6.379v6.687h-6.379v25.452h-8.484V43.084h-4.706V36.397L99.493,36.397z
		 M140.849,68.536V24.197h8.484v44.339H140.849L140.849,68.536z M157.435,36.397h7.803v4.385c2.796-3.375,6.13-5.067,10.001-5.067
		c2.054,0,3.839,0.422,5.345,1.269c1.519,0.847,2.757,2.126,3.716,3.84c1.415-1.714,2.942-2.993,4.572-3.84
		c1.632-0.846,3.377-1.269,5.233-1.269c2.354,0,4.346,0.474,5.986,1.434c1.631,0.959,2.85,2.363,3.653,4.221
		c0.589,1.361,0.877,3.582,0.877,6.647v20.518h-8.482V50.195c0-3.188-0.29-5.243-0.878-6.161c-0.784-1.206-2.002-1.815-3.633-1.815
		c-1.187,0-2.312,0.36-3.364,1.083c-1.044,0.733-1.807,1.796-2.271,3.189c-0.465,1.404-0.691,3.614-0.691,6.637v15.409h-8.483
		V50.949c0-3.116-0.154-5.14-0.454-6.037c-0.301-0.908-0.765-1.589-1.404-2.035c-0.629-0.443-1.496-0.659-2.579-0.659
		c-1.312,0-2.487,0.351-3.529,1.053c-1.053,0.711-1.797,1.722-2.251,3.054c-0.454,1.331-0.681,3.541-0.681,6.617v15.594h-8.484
		V36.397L157.435,36.397z M245.785,50.148c0.802-3.543,0.258-7.392-1.822-10.706l-0.024-0.039c-2.079-3.294-5.292-5.435-8.806-6.237
		c-3.515-0.801-7.335-0.262-10.628,1.805l-0.038,0.024c-3.305,2.087-5.451,5.321-6.253,8.862c-0.803,3.542-0.258,7.392,1.824,10.705
		l0.022,0.04c2.082,3.294,5.292,5.435,8.806,6.234c3.516,0.801,7.335,0.262,10.63-1.806l0.037-0.023
		C242.836,56.92,244.984,53.687,245.785,50.148L245.785,50.148z M231.811,39.212c0.114-2.219,1.942-3.984,4.181-3.984
		s4.067,1.766,4.181,3.984c0.001,0.034,0.002,0.069,0.003,0.105v0.001c0.002,0.036,0.002,0.071,0.002,0.107v0.001
		c0,0.036,0,0.072-0.002,0.107v0.002c-0.001,0.036-0.002,0.071-0.003,0.106c-0.053,1.038-0.48,1.974-1.151,2.679l0,0
		c-0.022,0.024-0.046,0.048-0.07,0.073h-0.002c-0.021,0.024-0.045,0.047-0.07,0.07l0,0c-0.023,0.023-0.049,0.047-0.072,0.069l0,0
		c-0.051,0.046-0.102,0.089-0.152,0.132l0,0c-0.026,0.021-0.052,0.043-0.079,0.063l0,0c-0.027,0.022-0.052,0.042-0.078,0.063l0,0
		c-0.055,0.04-0.109,0.08-0.166,0.116v0.001c-0.027,0.019-0.056,0.038-0.083,0.055l0,0c-0.028,0.018-0.058,0.036-0.086,0.054l0,0
		c-0.03,0.018-0.059,0.034-0.088,0.051l0,0c-0.029,0.017-0.059,0.034-0.088,0.049l0,0c-0.029,0.017-0.06,0.032-0.088,0.048l0,0
		c-0.031,0.015-0.062,0.03-0.093,0.044l0,0c-0.03,0.015-0.062,0.029-0.092,0.044l0,0c-0.03,0.014-0.062,0.027-0.094,0.042l0,0
		c-0.032,0.013-0.063,0.024-0.094,0.038l0,0c-0.032,0.013-0.064,0.026-0.097,0.037l0,0c-0.032,0.012-0.063,0.023-0.095,0.033l0,0
		c-0.033,0.011-0.066,0.022-0.098,0.033l0,0c-0.034,0.01-0.068,0.019-0.101,0.029l0,0c-0.033,0.01-0.067,0.018-0.1,0.027l0,0
		c-0.033,0.01-0.067,0.017-0.101,0.025l0,0c-0.033,0.007-0.067,0.016-0.102,0.023l0,0c-0.035,0.005-0.069,0.013-0.104,0.018l0,0
		c-0.034,0.007-0.068,0.012-0.103,0.018l0,0c-0.033,0.005-0.07,0.009-0.105,0.015l0,0c-0.034,0.003-0.069,0.009-0.105,0.012l0,0
		c-0.034,0.003-0.069,0.008-0.104,0.01l0,0c-0.036,0.002-0.071,0.005-0.106,0.008l0,0c-0.035,0.001-0.073,0.002-0.106,0.003l0,0
		c-0.037,0.001-0.073,0.001-0.108,0.001h-0.001c-0.035,0-0.07,0-0.107-0.001h-0.001c-0.035-0.001-0.07-0.002-0.106-0.003l0,0
		c-0.035-0.002-0.07-0.005-0.105-0.008l0,0c-0.037-0.002-0.072-0.006-0.106-0.01h-0.001c-0.036-0.003-0.07-0.008-0.104-0.012l0,0
		c-0.035-0.005-0.069-0.01-0.105-0.015l0,0c-0.034-0.006-0.068-0.011-0.102-0.018l0,0c-0.034-0.005-0.068-0.013-0.103-0.018l0,0
		c-0.035-0.007-0.069-0.016-0.102-0.023l0,0c-0.034-0.008-0.068-0.015-0.102-0.025h-0.001c-0.033-0.009-0.065-0.017-0.098-0.027l0,0
		c-0.034-0.01-0.066-0.019-0.1-0.029l0,0c-0.031-0.011-0.065-0.022-0.098-0.033l0,0c-0.032-0.01-0.065-0.021-0.096-0.033l0,0
		c-0.064-0.024-0.128-0.05-0.191-0.074l0,0c-0.03-0.015-0.063-0.028-0.093-0.042l0,0c-0.03-0.015-0.063-0.029-0.093-0.044l0,0
		c-1.342-0.648-2.286-1.994-2.366-3.566c-0.001-0.036-0.002-0.071-0.003-0.106v-0.002c0-0.036,0-0.072,0-0.107v-0.001
		c0-0.037,0-0.072,0-0.107v-0.001C231.809,39.281,231.81,39.246,231.811,39.212L231.811,39.212z M242.841,44.516
		c0.083,0.057,0.166,0.116,0.245,0.179l0,0c0.736,0.579,1.274,1.404,1.491,2.355l0,0c0.01,0.033,0.017,0.067,0.023,0.102l0,0
		c0.007,0.034,0.015,0.067,0.021,0.103l0,0c0.006,0.035,0.011,0.069,0.017,0.103l0,0c0.004,0.036,0.01,0.071,0.015,0.106l0,0
		c0.005,0.035,0.01,0.07,0.012,0.104l0,0c0.004,0.036,0.007,0.071,0.01,0.107l0,0c0.002,0.034,0.006,0.07,0.007,0.107l0,0
		c0.001,0.035,0.002,0.071,0.005,0.107c0,0.035,0,0.07,0,0.109c0,0.034,0,0.068,0,0.103l-0.003,0.032
		c0,0.025-0.001,0.05-0.002,0.073l-0.001,0.039c-0.004,0.021-0.004,0.043-0.005,0.062l-0.004,0.043
		c-0.001,0.021-0.003,0.041-0.006,0.063l-0.003,0.041c-0.003,0.021-0.005,0.039-0.009,0.059l-0.005,0.045l-0.008,0.059l-0.007,0.04
		c-0.002,0.021-0.006,0.042-0.011,0.063l-0.006,0.038c-0.005,0.021-0.008,0.039-0.012,0.061l-0.008,0.038
		c-0.005,0.022-0.01,0.046-0.015,0.067l-0.006,0.029c-0.006,0.024-0.013,0.048-0.02,0.074l-0.005,0.024
		c-0.007,0.027-0.014,0.054-0.021,0.08l-0.005,0.018c-0.027,0.099-0.06,0.194-0.095,0.288l-0.005,0.012
		c-0.009,0.028-0.019,0.057-0.029,0.082l-0.007,0.016c-0.011,0.027-0.02,0.052-0.031,0.076l-0.009,0.021
		c-0.01,0.026-0.021,0.051-0.032,0.076l-0.005,0.012c-0.012,0.025-0.023,0.052-0.036,0.077l-0.008,0.017
		c-0.013,0.024-0.024,0.05-0.038,0.075l-0.006,0.014c-0.016,0.027-0.028,0.052-0.041,0.076l-0.005,0.011
		c-0.016,0.028-0.03,0.053-0.046,0.081l-0.004,0.007c-0.134,0.232-0.289,0.451-0.463,0.653l-0.005,0.004
		c-0.021,0.023-0.04,0.047-0.063,0.07l-0.002,0.005c-0.022,0.023-0.044,0.046-0.066,0.07l-0.002,0.003
		c-0.022,0.023-0.043,0.047-0.067,0.069l-0.004,0.002c-0.021,0.023-0.045,0.045-0.067,0.068l-0.002,0.002
		c-0.193,0.185-0.404,0.35-0.631,0.495l-0.007,0.004c-0.023,0.018-0.048,0.031-0.075,0.048l-0.012,0.01
		c-0.024,0.013-0.047,0.025-0.069,0.038l-0.02,0.012c-0.023,0.015-0.047,0.027-0.069,0.04l-0.017,0.009
		c-0.024,0.014-0.052,0.026-0.075,0.04l-0.012,0.007c-0.026,0.013-0.054,0.025-0.081,0.04l-0.009,0.004
		c-0.026,0.011-0.052,0.024-0.08,0.036l-0.013,0.007c-0.121,0.055-0.245,0.104-0.373,0.148l-0.021,0.005
		c-0.024,0.01-0.048,0.018-0.075,0.024l-0.021,0.008c-0.025,0.007-0.049,0.015-0.074,0.021l-0.028,0.011
		c-0.021,0.005-0.045,0.011-0.065,0.016l-0.033,0.009c-0.021,0.006-0.044,0.011-0.064,0.017l-0.036,0.007
		c-0.021,0.006-0.041,0.011-0.063,0.016l-0.036,0.006c-0.022,0.005-0.046,0.01-0.068,0.014l-0.03,0.005
		c-0.021,0.006-0.045,0.01-0.067,0.012l-0.036,0.006c-0.021,0.004-0.044,0.008-0.065,0.011l-0.033,0.004l-0.014,0.002
		c-0.186,0.025-0.375,0.039-0.568,0.039c-2.31,0-4.186-1.882-4.186-4.2c0-2.138,1.598-3.905,3.662-4.166l0.036-0.003l0.018-0.003
		c0.032-0.002,0.063-0.006,0.092-0.011l0.011-0.001c0.139-0.013,0.279-0.019,0.422-0.019c0.615,0,1.197,0.131,1.724,0.369l0,0
		c0.029,0.014,0.061,0.029,0.091,0.044l0,0c0.031,0.014,0.061,0.029,0.091,0.044c0.03,0.016,0.06,0.032,0.09,0.048
		c0.028,0.017,0.06,0.032,0.089,0.049s0.057,0.033,0.087,0.052c0.027,0.017,0.056,0.034,0.085,0.053
		C242.786,44.477,242.814,44.497,242.841,44.516L242.841,44.516L242.841,44.516z M237.657,53.996
		c0.009,0.034,0.016,0.068,0.021,0.102L237.657,53.996L237.657,53.996z M232.984,50.786c0.105-0.016,0.213-0.026,0.321-0.033
		l0.01-0.001h0.007l0.008-0.001c0.021,0,0.044-0.001,0.063-0.001l0.01-0.002l0.009-0.001l0.025-0.001h0.01h0.044h0.01h0.001
		l0.053-0.001h0.025c1.951,0,3.588,1.338,4.053,3.148c0.008,0.033,0.018,0.068,0.024,0.103l0,0c0.009,0.034,0.016,0.068,0.021,0.102
		c0.008,0.034,0.014,0.067,0.02,0.104l0,0c0.008,0.034,0.012,0.068,0.018,0.104l0,0c0.005,0.034,0.011,0.068,0.015,0.104l0,0
		c0.006,0.035,0.009,0.07,0.013,0.105l0,0c0.004,0.035,0.007,0.07,0.008,0.105v0.001c0.004,0.037,0.005,0.07,0.009,0.106v0.001
		c0.001,0.035,0.002,0.071,0.003,0.107l0,0c0.002,0.035,0.002,0.072,0.002,0.108l0,0c0,0.035,0,0.069-0.002,0.104l-0.001,0.026
		c-0.001,0.025-0.001,0.051-0.001,0.075l-0.005,0.035c-0.001,0.022-0.001,0.045-0.002,0.067l-0.004,0.037
		c-0.001,0.022-0.003,0.043-0.006,0.063l-0.003,0.039c-0.003,0.022-0.005,0.042-0.008,0.063l-0.004,0.038
		c-0.003,0.023-0.008,0.046-0.01,0.068l-0.004,0.029c-0.006,0.025-0.009,0.051-0.013,0.076l-0.006,0.024
		c-0.005,0.028-0.011,0.06-0.016,0.089l-0.003,0.012c-0.006,0.031-0.013,0.064-0.021,0.099l-0.003,0.013
		c-0.007,0.028-0.014,0.055-0.021,0.084l-0.005,0.023c-0.007,0.023-0.014,0.047-0.02,0.073l-0.009,0.025
		c-0.007,0.023-0.013,0.046-0.02,0.07l-0.01,0.027c-0.006,0.022-0.014,0.045-0.02,0.064l-0.011,0.03
		c-0.008,0.023-0.015,0.046-0.024,0.068l-0.007,0.023c-0.01,0.025-0.02,0.051-0.028,0.074l-0.009,0.02
		c-0.01,0.027-0.021,0.054-0.033,0.083l-0.003,0.008c-0.024,0.062-0.053,0.119-0.082,0.181l-0.011,0.021
		c-0.011,0.022-0.022,0.045-0.032,0.066l-0.014,0.024c-0.012,0.022-0.021,0.044-0.032,0.063l-0.014,0.023
		c-0.01,0.02-0.021,0.042-0.033,0.063l-0.014,0.023c-0.012,0.021-0.025,0.041-0.037,0.061l-0.013,0.023
		c-0.014,0.021-0.026,0.043-0.041,0.064l-0.011,0.02c-0.017,0.023-0.033,0.048-0.05,0.072l-0.002,0.006
		c-0.039,0.056-0.077,0.11-0.117,0.163l-0.004,0.004c-0.017,0.023-0.036,0.049-0.053,0.072l-0.015,0.017
		c-0.016,0.021-0.032,0.04-0.048,0.061l-0.015,0.019c-0.016,0.018-0.031,0.036-0.046,0.054l-0.02,0.023
		c-0.015,0.016-0.031,0.034-0.046,0.051l-0.02,0.02c-0.016,0.021-0.033,0.038-0.05,0.057l-0.014,0.014
		c-0.02,0.021-0.039,0.04-0.06,0.062l-0.009,0.008c-0.069,0.069-0.142,0.138-0.216,0.201l-0.014,0.012
		c-0.02,0.018-0.039,0.034-0.059,0.05l-0.02,0.017c-0.021,0.016-0.039,0.032-0.058,0.047l-0.018,0.014
		c-0.021,0.016-0.04,0.031-0.059,0.048l-0.02,0.013c-0.02,0.014-0.039,0.027-0.06,0.042l-0.023,0.016
		c-0.02,0.017-0.041,0.03-0.063,0.045l-0.014,0.01c-0.08,0.055-0.164,0.107-0.25,0.157l-0.013,0.006
		c-0.023,0.015-0.048,0.028-0.073,0.042l-0.018,0.01c-0.023,0.012-0.046,0.023-0.069,0.035l-0.021,0.011
		c-0.022,0.012-0.043,0.022-0.064,0.033l-0.026,0.013c-0.022,0.012-0.045,0.021-0.065,0.03l-0.021,0.01
		c-0.024,0.012-0.048,0.022-0.074,0.031l-0.015,0.009c-0.028,0.012-0.056,0.022-0.085,0.034l-0.008,0.002
		c-0.063,0.024-0.127,0.049-0.19,0.071h-0.001c-0.03,0.011-0.062,0.021-0.093,0.029l-0.017,0.006
		c-0.026,0.009-0.053,0.016-0.078,0.023l-0.022,0.008c-0.024,0.004-0.05,0.013-0.075,0.018l-0.021,0.007
		c-0.026,0.007-0.052,0.013-0.079,0.02l-0.017,0.004c-0.028,0.007-0.055,0.012-0.084,0.018l-0.019,0.004
		c-0.028,0.007-0.059,0.013-0.088,0.019l-0.011,0.001l-0.012,0.002c-0.252,0.049-0.514,0.074-0.782,0.074
		c-2.312,0-4.185-1.881-4.185-4.199C229.339,52.815,230.927,51.053,232.984,50.786L232.984,50.786z M227.484,53.898
		c-0.011,0.01-0.022,0.019-0.034,0.028c-0.014,0.012-0.029,0.025-0.042,0.036c-0.011,0.009-0.021,0.018-0.031,0.026
		c-0.014,0.012-0.028,0.023-0.043,0.034c-0.012,0.01-0.021,0.02-0.033,0.027l-0.002,0.001c-0.024,0.02-0.048,0.038-0.073,0.057
		l-0.03,0.022c-0.016,0.012-0.031,0.023-0.048,0.034l-0.034,0.025c-0.015,0.011-0.03,0.021-0.045,0.031l-0.039,0.025
		c-0.013,0.01-0.027,0.018-0.044,0.027c-0.013,0.011-0.026,0.019-0.04,0.027l-0.038,0.024c-0.017,0.01-0.033,0.02-0.048,0.03
		l-0.034,0.019c-0.017,0.011-0.035,0.019-0.051,0.029l-0.034,0.019l-0.048,0.026l-0.039,0.021c-0.018,0.01-0.032,0.017-0.049,0.026
		l-0.036,0.018l-0.052,0.025l-0.035,0.017c-0.02,0.008-0.035,0.017-0.053,0.022l-0.034,0.017c-0.021,0.009-0.039,0.017-0.057,0.024
		l-0.029,0.012c-0.021,0.008-0.041,0.017-0.063,0.024l-0.019,0.007c-0.075,0.031-0.152,0.058-0.232,0.084l-0.02,0.006
		c-0.021,0.007-0.04,0.013-0.062,0.019l-0.034,0.011c-0.02,0.005-0.038,0.011-0.059,0.016l-0.037,0.01
		c-0.019,0.005-0.038,0.01-0.056,0.016l-0.043,0.009c-0.018,0.005-0.034,0.009-0.052,0.012l-0.045,0.011
		c-0.019,0.004-0.037,0.008-0.056,0.012l-0.04,0.006c-0.021,0.006-0.04,0.009-0.059,0.011l-0.039,0.007
		c-0.02,0.004-0.041,0.006-0.061,0.011l-0.042,0.005l-0.059,0.008l-0.012,0.002c-0.183,0.024-0.368,0.037-0.558,0.037
		c-2.311,0-4.185-1.879-4.185-4.199c0-2.131,1.588-3.893,3.641-4.161c0.195-0.027,0.396-0.044,0.6-0.044
		c1.949,0,3.589,1.337,4.053,3.148c0.009,0.034,0.019,0.067,0.024,0.101v0.001c0.01,0.033,0.017,0.066,0.022,0.102l0,0
		c0.007,0.034,0.013,0.068,0.02,0.103l0,0c0.007,0.035,0.012,0.07,0.018,0.104l0,0c0.005,0.035,0.009,0.07,0.015,0.104l0,0
		c0.003,0.036,0.009,0.071,0.013,0.105l0,0c0.002,0.035,0.006,0.071,0.008,0.106l0,0c0.003,0.035,0.005,0.071,0.009,0.108l0,0
		c0.001,0.034,0.002,0.07,0.003,0.107l0,0c0,0.034,0,0.071,0,0.108l0,0c0,0.034,0,0.069,0,0.104l-0.001,0.028
		c0,0.024-0.001,0.053-0.002,0.078l-0.004,0.035c-0.001,0.021-0.002,0.044-0.002,0.064l-0.005,0.046
		c-0.002,0.021-0.005,0.04-0.006,0.059l-0.004,0.04c-0.002,0.021-0.006,0.045-0.008,0.064l-0.004,0.039
		c-0.003,0.02-0.006,0.041-0.009,0.063l-0.006,0.038c-0.004,0.021-0.008,0.043-0.011,0.063l-0.007,0.037
		c-0.005,0.021-0.008,0.043-0.011,0.063l-0.009,0.038c-0.006,0.022-0.01,0.043-0.014,0.065l-0.007,0.033
		c-0.005,0.022-0.011,0.044-0.018,0.066l-0.006,0.032c-0.01,0.025-0.016,0.054-0.022,0.078l-0.005,0.015
		c-0.018,0.065-0.037,0.131-0.061,0.195l-0.002,0.006c-0.01,0.031-0.02,0.062-0.031,0.09l-0.006,0.014
		c-0.01,0.027-0.02,0.053-0.028,0.08l-0.011,0.022c-0.008,0.024-0.019,0.047-0.028,0.07l-0.01,0.022
		c-0.01,0.023-0.02,0.043-0.027,0.067l-0.016,0.032c-0.009,0.018-0.019,0.037-0.029,0.058l-0.014,0.03
		c-0.01,0.019-0.019,0.037-0.027,0.058l-0.017,0.032c-0.01,0.02-0.02,0.036-0.029,0.056l-0.018,0.031
		c-0.01,0.02-0.02,0.037-0.03,0.056l-0.018,0.03c-0.011,0.019-0.022,0.036-0.032,0.054l-0.019,0.031
		c-0.012,0.02-0.025,0.04-0.037,0.061l-0.013,0.021c-0.015,0.021-0.029,0.043-0.044,0.064l-0.012,0.019
		c-0.036,0.054-0.075,0.108-0.113,0.162l-0.005,0.004c-0.017,0.024-0.036,0.049-0.054,0.072l-0.022,0.026
		c-0.012,0.016-0.025,0.032-0.038,0.049l-0.022,0.027c-0.014,0.016-0.027,0.031-0.041,0.049l-0.023,0.026
		c-0.014,0.014-0.026,0.03-0.041,0.044l-0.024,0.029l-0.041,0.044l-0.028,0.029l-0.039,0.04l-0.029,0.029
		c-0.014,0.014-0.027,0.026-0.041,0.041l-0.026,0.026l-0.044,0.04l-0.03,0.026C227.511,53.873,227.497,53.886,227.484,53.898
		L227.484,53.898z M229.361,42.136c-0.007,0.023-0.015,0.048-0.021,0.073L229.361,42.136L229.361,42.136z M229.401,41.985
		c-0.006,0.02-0.011,0.04-0.016,0.059L229.401,41.985L229.401,41.985z M229.506,41.299c0,0.017-0.001,0.032-0.004,0.048
		c-0.001,0.018-0.002,0.036-0.003,0.053l-0.006,0.049l-0.006,0.053l-0.006,0.049l-0.009,0.049c-0.001,0.015-0.003,0.035-0.006,0.052
		l-0.009,0.048c-0.002,0.017-0.006,0.034-0.009,0.051l-0.009,0.044c-0.003,0.017-0.008,0.037-0.011,0.055
		c-0.003,0.014-0.006,0.027-0.01,0.041c-0.002,0.018-0.007,0.037-0.013,0.056l-0.007,0.038c-0.006,0.02-0.011,0.04-0.016,0.059
		c-0.007,0.03-0.016,0.06-0.024,0.091c-0.007,0.023-0.015,0.048-0.021,0.073l-0.006,0.018c-0.006,0.021-0.013,0.04-0.018,0.06
		l-0.013,0.037c-0.007,0.019-0.012,0.037-0.019,0.057l-0.014,0.034c-0.007,0.02-0.015,0.039-0.021,0.06l-0.012,0.028
		c-0.008,0.021-0.016,0.041-0.022,0.059l-0.015,0.033c-0.007,0.02-0.016,0.039-0.024,0.059l-0.011,0.026
		c-0.009,0.021-0.019,0.041-0.027,0.062l-0.014,0.026c-0.009,0.021-0.02,0.041-0.028,0.062l-0.01,0.02
		c-0.093,0.188-0.198,0.368-0.318,0.539l-0.005,0.005c-0.014,0.023-0.03,0.043-0.045,0.065l-0.01,0.015
		c-0.017,0.021-0.032,0.042-0.05,0.064l-0.003,0.006c-0.02,0.022-0.036,0.045-0.055,0.066l-0.002,0.005
		c-0.654,0.817-1.608,1.383-2.693,1.532c-0.206,0.031-0.414,0.047-0.629,0.047c-2.312,0-4.184-1.88-4.184-4.196
		c0-2.083,1.511-3.811,3.491-4.142c0.242-0.043,0.492-0.068,0.747-0.068c1.771,0,3.284,1.104,3.896,2.662l0,0
		c0.013,0.032,0.024,0.063,0.036,0.096l0,0c0.012,0.031,0.022,0.064,0.034,0.096l0,0c0.011,0.034,0.021,0.065,0.032,0.099l0,0
		c0.009,0.033,0.02,0.065,0.029,0.1l0,0c0.01,0.032,0.019,0.067,0.026,0.1l0,0c0.009,0.033,0.018,0.066,0.026,0.101
		c0.006,0.035,0.014,0.068,0.021,0.102l0,0c0.006,0.034,0.015,0.069,0.02,0.103c0.007,0.036,0.013,0.069,0.018,0.104l0,0
		c0.007,0.036,0.01,0.07,0.014,0.105l0,0c0.006,0.034,0.008,0.068,0.012,0.105l0,0c0.005,0.036,0.007,0.071,0.011,0.105l0,0
		c0.003,0.036,0.006,0.073,0.006,0.108l0,0c0.004,0.036,0.004,0.072,0.005,0.106l0,0c0,0.037,0.001,0.074,0.001,0.108l0,0v0.003
		c0,0.035-0.001,0.069-0.001,0.103l-0.001,0.031c0,0.023-0.002,0.047-0.003,0.069l-0.002,0.048
		C229.509,41.263,229.509,41.28,229.506,41.299L229.506,41.299z M232.556,47.079c0.151-0.152,0.244-0.36,0.244-0.592
		c0-0.232-0.093-0.444-0.244-0.596s-0.358-0.245-0.59-0.245c-0.229,0-0.439,0.093-0.591,0.247c-0.151,0.151-0.244,0.362-0.244,0.594
		c0,0.231,0.093,0.439,0.244,0.59c0.151,0.151,0.359,0.245,0.591,0.245S232.405,47.228,232.556,47.079L232.556,47.079z
		 M233.108,46.487c0,0.314-0.128,0.6-0.334,0.806c-0.208,0.207-0.492,0.336-0.808,0.336c-0.314,0-0.599-0.129-0.806-0.336
		c-0.206-0.206-0.334-0.491-0.334-0.806c0-0.317,0.128-0.602,0.334-0.809c0.207-0.209,0.491-0.337,0.806-0.337
		c0.315,0,0.6,0.127,0.806,0.337C232.979,45.885,233.108,46.17,233.108,46.487L233.108,46.487z M231.296,43.905
		c0.018-0.128,0.066-0.246,0.143-0.343l0,0l0.011-0.013l0,0l0.012-0.014l0,0l0.012-0.013l0,0l0.011-0.012l0,0l0.012-0.011
		l0.014-0.013l0.011-0.011l0.013-0.012l0.014-0.012l0,0l0.013-0.011l0,0l0.013-0.009l0,0c0.01-0.006,0.019-0.015,0.028-0.02l0,0
		l0.014-0.011l0,0c0.109-0.068,0.238-0.108,0.379-0.108c0.138,0,0.268,0.041,0.376,0.108l0,0l0.014,0.011l0,0
		c0.01,0.005,0.018,0.014,0.026,0.02l0,0l0.015,0.009l0,0l0.014,0.011l0,0l0.012,0.012l0.013,0.012l0.012,0.011l0.014,0.013
		l0.011,0.011l0,0l0.012,0.012l0,0l0.012,0.013l0,0l0.011,0.014l0,0l0.011,0.013l0,0c0.076,0.098,0.126,0.215,0.143,0.343
		l0.003,0.018l0,0l0.001,0.018l0,0l0.001,0.017v0.001v0.017l0,0v0.019l0,0v0.017v0.001v0.017l0,0l-0.001,0.02l0,0l-0.001,0.016
		c-0.036,0.356-0.335,0.633-0.695,0.633c-0.363,0-0.663-0.277-0.699-0.633l-0.001-0.016l0,0l-0.001-0.02l0,0l-0.003-0.017v-0.001
		v-0.017l0,0v-0.019l0,0l0.003-0.017v-0.001l0.001-0.017l0,0l0.001-0.018l0,0L231.296,43.905L231.296,43.905z M233.906,45.743
		c0.027-0.265,0.201-0.486,0.44-0.581l0,0l0.016-0.005l0,0l0.016-0.006l0,0l0.017-0.005l0.017-0.003V45.14l0.017-0.003l0,0
		l0.018-0.004l0,0l0.016-0.003l0.019-0.003l0,0l0.017-0.004l0.018-0.001l0,0l0.018-0.003l0.018-0.001h0.018l0.019-0.001h0.018h0.019
		l0.018,0.001h0.018l0.018,0.001l0.017,0.003l0,0l0.019,0.001l0.017,0.004l0,0l0.018,0.003l0.017,0.003l0,0l0.017,0.004l0,0
		l0.018,0.003v0.002l0.016,0.003l0.018,0.005l0,0l0.015,0.006l0,0l0.017,0.005l0,0c0.238,0.094,0.414,0.315,0.44,0.581l0,0
		l0.001,0.018v0.001l0.002,0.016v0.001v0.017l0,0l0.001,0.019v0.002l-0.001,0.017l0,0v0.016v0.002l-0.002,0.017l0,0l-0.001,0.017
		v0.001l-0.003,0.017l0,0l-0.002,0.018v0.001l-0.003,0.016l0,0l-0.003,0.018c-0.004,0.015-0.007,0.032-0.013,0.049l0,0l-0.005,0.016
		v0.001l-0.005,0.016l0,0l-0.006,0.016l0,0l-0.006,0.017l0,0l-0.006,0.015l0,0l-0.008,0.016l0,0l-0.008,0.015l0,0l-0.007,0.015l0,0
		l-0.008,0.015l0,0l-0.009,0.014l0,0l-0.009,0.015l0,0l-0.01,0.014l0,0l-0.008,0.015l0,0l-0.01,0.014l-0.011,0.014l-0.011,0.013
		l-0.01,0.013l-0.01,0.013l-0.012,0.012l0,0l-0.012,0.014l-0.011,0.012l-0.013,0.012l-0.012,0.012l0,0l-0.014,0.009l-0.012,0.011
		l0,0l-0.015,0.011l0,0l-0.013,0.011l0,0l-0.013,0.011l0,0l-0.015,0.008l0,0l-0.014,0.011l0,0l-0.015,0.009l0,0l-0.015,0.008l0,0
		l-0.015,0.009l0,0l-0.014,0.008l0,0l-0.017,0.007l-0.014,0.008l0,0l-0.018,0.009l0,0l-0.016,0.005l-0.017,0.007l-0.015,0.005
		l-0.018,0.007l0,0l-0.016,0.003l-0.018,0.004l-0.017,0.006l0,0l-0.017,0.002l-0.018,0.005l-0.017,0.003l-0.019,0.002l-0.017,0.001
		l-0.018,0.003l-0.018,0.001h-0.018h-0.019h-0.018h-0.019l-0.018-0.001l-0.018-0.003l-0.018-0.001l-0.018-0.002l-0.017-0.003
		l-0.019-0.005l-0.016-0.002l0,0l-0.018-0.006l-0.017-0.004l-0.017-0.003l0,0l-0.017-0.007l-0.016-0.005l-0.016-0.007l-0.018-0.005
		l0,0l-0.016-0.009l0,0l-0.015-0.008l-0.015-0.007l0,0l-0.015-0.008l0,0l-0.016-0.009l0,0l-0.014-0.008l0,0l-0.015-0.009l0,0
		l-0.015-0.011l0,0l-0.015-0.008l0,0l-0.013-0.011l0,0l-0.014-0.011l0,0l-0.014-0.011l0,0l-0.013-0.011l-0.012-0.009l0,0
		l-0.013-0.012l-0.011-0.012l-0.012-0.012l-0.012-0.014l0,0l-0.011-0.012l-0.012-0.013l-0.011-0.013l-0.011-0.013l-0.009-0.014
		l-0.011-0.014l0,0l-0.009-0.015l0,0l-0.009-0.014l0,0l-0.008-0.015l0,0l-0.009-0.014l0,0l-0.008-0.015l0,0l-0.009-0.015l0,0
		l-0.006-0.015l0,0l-0.008-0.016l0,0l-0.006-0.015l0,0l-0.006-0.017l0,0l-0.006-0.016l0,0l-0.005-0.016v-0.001l-0.006-0.016l0,0
		c-0.005-0.017-0.009-0.034-0.012-0.049l-0.003-0.018l0,0l-0.003-0.016v-0.001l-0.003-0.018l0,0l-0.002-0.017v-0.001l-0.002-0.017
		l0,0l-0.001-0.017V45.85v-0.016l0,0v-0.017v-0.002v-0.019l0,0v-0.017v-0.001l0.001-0.016v-0.001L233.906,45.743L233.906,45.743
		L233.906,45.743z M233.189,48.111c0.007-0.009,0.013-0.018,0.019-0.027L233.189,48.111L233.189,48.111z M233.189,48.111
		c0.007-0.009,0.013-0.018,0.019-0.027v-0.001l0.011-0.013l0,0c0.129-0.164,0.326-0.268,0.551-0.268c0.374,0,0.68,0.295,0.697,0.664
		l0.001,0.017v0.002v0.019l0,0v0.017v0.002l-0.001,0.018c-0.018,0.37-0.323,0.666-0.697,0.666c-0.387,0-0.699-0.314-0.699-0.702
		c0-0.049,0.005-0.097,0.015-0.143l0,0c0.006-0.034,0.016-0.066,0.027-0.099l0,0v-0.001c0.003-0.011,0.008-0.021,0.012-0.032l0,0
		l0.008-0.015l0,0l0.009-0.016l0,0l0.006-0.014v-0.001l0.008-0.015v-0.002l0.01-0.013v-0.002l0.008-0.013v-0.001l0.007-0.013h0.002
		L233.189,48.111L233.189,48.111L233.189,48.111z M229.778,48.532c0.027-0.361,0.326-0.647,0.695-0.647s0.672,0.286,0.698,0.647
		l0.001,0.018v0.002v0.017l0,0l0.002,0.019l0,0l-0.002,0.019v0.001v0.017l0,0l-0.001,0.018c-0.026,0.362-0.329,0.646-0.698,0.646
		s-0.669-0.284-0.695-0.646l-0.002-0.018l0,0v-0.017v-0.001v-0.019l0,0v-0.019l0,0v-0.017v-0.002L229.778,48.532L229.778,48.532z
		 M228.831,45.622c0.003-0.012,0.007-0.022,0.01-0.033l0,0l0.006-0.017l0,0l0.005-0.015c0.098-0.268,0.355-0.459,0.656-0.459
		c0.302,0,0.559,0.191,0.657,0.459l0.005,0.015l0,0l0.007,0.017l0,0c0.003,0.012,0.005,0.021,0.01,0.033l0.003,0.017l0,0
		l0.003,0.016l0,0l0.004,0.019l0,0l0.003,0.017l0,0l0.002,0.017v0.001l0.002,0.017l0,0l0.003,0.018l0,0l0.001,0.018l0,0v0.017l0,0
		v0.018l0,0v0.019v0.002v0.017l0,0l-0.001,0.016l0,0l-0.003,0.02l0,0l-0.002,0.017l0,0l-0.002,0.016v0.002l-0.003,0.018l0,0
		l-0.004,0.015l-0.003,0.02l0,0l-0.003,0.016l-0.006,0.016l0,0l-0.004,0.018l0,0l-0.007,0.015v0.001l-0.005,0.016
		c-0.005,0.011-0.008,0.022-0.012,0.031l0,0l-0.008,0.016l0,0l-0.006,0.016l0,0l-0.009,0.015l0,0l-0.007,0.015l0,0l-0.011,0.014
		c-0.009,0.021-0.022,0.039-0.034,0.057l0,0c-0.008,0.011-0.014,0.019-0.021,0.028l0,0l-0.011,0.013l0,0l-0.012,0.012l0,0
		l-0.011,0.015l0,0l-0.011,0.012l0,0l-0.013,0.012l0,0l-0.011,0.012l0,0l-0.013,0.012l0,0c-0.017,0.014-0.034,0.029-0.052,0.042l0,0
		c-0.116,0.088-0.262,0.141-0.419,0.141s-0.301-0.053-0.417-0.141l0,0c-0.02-0.013-0.035-0.028-0.053-0.042l0,0l-0.012-0.012l0,0
		l-0.013-0.012l0,0l-0.011-0.012l0,0l-0.012-0.012l0,0l-0.012-0.015l0,0l-0.011-0.012l0,0l-0.01-0.013l0,0
		c-0.006-0.009-0.014-0.017-0.021-0.028l0,0c-0.013-0.018-0.023-0.035-0.035-0.057l-0.008-0.014l0,0l-0.01-0.015l0,0l-0.007-0.015
		l0,0l-0.007-0.016l0,0l-0.007-0.016l0,0c-0.004-0.009-0.01-0.021-0.014-0.031l-0.005-0.016v-0.001l-0.006-0.015l0,0l-0.004-0.018
		l0,0l-0.006-0.016l-0.004-0.016l0,0l-0.002-0.02l-0.004-0.015l0,0l-0.004-0.018v-0.002l-0.002-0.016l0,0l-0.001-0.017l0,0
		l-0.003-0.02l0,0l-0.001-0.016l0,0v-0.017v-0.002l-0.001-0.019l0,0l0.001-0.018l0,0v-0.017l0,0l0.001-0.018l0,0l0.003-0.018l0,0
		l0.001-0.017v-0.001l0.002-0.017l0,0l0.004-0.017l0,0l0.004-0.019l0,0l0.002-0.016l0,0L228.831,45.622L228.831,45.622z
		 M245.437,38.513c2.336,3.723,2.948,8.043,2.048,12.017c-0.9,3.977-3.313,7.607-7.024,9.953l-0.036,0.023
		c-3.702,2.325-7.992,2.932-11.941,2.032c-3.949-0.9-7.561-3.308-9.898-7.007l-0.022-0.039c-2.337-3.723-2.948-8.044-2.049-12.017
		c0.901-3.978,3.312-7.61,7.025-9.956l0.035-0.022c3.702-2.324,7.993-2.93,11.941-2.029c3.951,0.899,7.561,3.306,9.898,7.006
		L245.437,38.513L245.437,38.513z M55.765,47.181c25.709,17.702,55.019,30.626,86.062,35c4.706,0.663,9.441,1.128,14.187,1.383
		c9.528,0.509,19.086,0.17,28.55-1.058c9.671-1.254,19.196-3.43,28.457-6.483c19.644-6.478,37.598-16.732,53.714-29.611
		c-36.353-28.618-79.063-41.7-125.165-34.859C110.559,16.154,81.344,29.291,55.765,47.181L55.765,47.181z"/>
</g>
</svg>
